<?xml version="1.0" encoding="iso-8859-1"?>
<!-- Uploaded to: SVG Repo, www.svgrepo.com, Generator: SVG Repo Mixer Tools -->
<svg fill="#000000" height="800px" width="800px" version="1.1" id="Layer_1" xmlns="http://www.w3.org/2000/svg" xmlns:xlink="http://www.w3.org/1999/xlink" 
	 viewBox="0 0 512 512" xml:space="preserve">
<g>
	<g>
		<path d="M274.49,278.756c-1.793-4.503-6.897-6.698-11.399-4.902c-2.072,0.826-4.211,1.256-6.362,1.283
			c-2.536-0.016-5.035-0.501-7.474-1.572c-4.436-1.954-9.613,0.063-11.564,4.499c-1.951,4.436,0.063,9.614,4.499,11.564
			c4.617,2.03,9.436,3.057,14.333,3.057c0.138,0,0.276-0.001,0.414-0.004c4.313-0.05,8.569-0.902,12.651-2.528
			C274.09,288.361,276.285,283.257,274.49,278.756z"/>
	</g>
</g>
<g>
	<g>
		<path d="M371.537,334.509c-0.074-0.021-0.147-0.039-0.221-0.057l-56.551-13.922l0.372-26.878
			c11.073-14.724,19.071-33.453,23.027-53.907l23.219-1.096c13.195-0.124,23.889-10.896,23.889-24.12v-22.283h14.512
			c8.125,0,14.734-6.61,14.734-14.734v-42.283c0-8.123-6.61-14.734-14.734-14.734h-14.816C380.44,53.292,324.334,0,256.005,0
			c-68.329,0-124.436,53.292-128.963,120.493h-14.815c-8.125,0-14.734,6.61-14.734,14.734v42.283c0,8.123,6.61,14.734,14.734,14.734
			h14.512v22.283c0,13.227,10.701,24.002,23.9,24.12l30.073,1.357c0.652,0.028,1.304-0.013,1.947-0.129
			c8.95-1.606,17.868-3.772,26.493-5.866c17.239-4.186,33.538-8.13,50.099-8.034c15.43,0.096,30.576,3.973,46.61,8.079
			c4.861,1.244,9.827,2.5,14.836,3.666c-3.703,18.308-10.869,34.253-20.28,46.378c-0.614,0.574-1.145,1.237-1.575,1.966
			c-11.779,14.276-26.794,22.749-42.835,22.749c-15.693,0-30.684-8.183-42.573-22.463c-0.057-0.073-0.12-0.142-0.18-0.212
			c-6.339-7.667-11.79-17.07-15.98-27.904c-1.748-4.52-6.826-6.766-11.349-5.019c-4.519,1.748-6.766,6.828-5.019,11.347
			c4.44,11.48,10.159,21.637,16.838,30.245l-0.319,25.88l-54.476,15.149c-56.686,14.309-96.263,65.116-96.263,123.589v31.944
			c0,2.293,0.897,4.495,2.5,6.133C58.59,507.123,66.323,512,72.173,512c6.254,0,10.704-4.553,14.63-8.568
			c0.58-0.593,1.352-1.384,2.081-2.085c0.73,0.703,1.503,1.492,2.082,2.085c3.926,4.017,8.376,8.568,14.63,8.568
			c6.254,0,10.703-4.552,14.629-8.568c0.58-0.593,1.352-1.383,2.082-2.085c0.73,0.702,1.502,1.492,2.082,2.085
			c3.926,4.017,8.376,8.568,14.63,8.568c6.254,0,10.704-4.553,14.63-8.568c0.58-0.593,1.352-1.384,2.081-2.085
			c0.73,0.703,1.503,1.492,2.082,2.085c3.926,4.017,8.376,8.568,14.63,8.568c6.254,0,10.703-4.552,14.629-8.568
			c0.58-0.593,1.352-1.384,2.082-2.085c0.73,0.702,1.503,1.492,2.082,2.085c3.926,4.017,8.376,8.568,14.629,8.568
			s10.704-4.553,14.63-8.568c0.58-0.593,1.352-1.384,2.081-2.085c0.73,0.703,1.503,1.492,2.082,2.085
			c3.926,4.017,8.376,8.568,14.63,8.568s10.703-4.552,14.629-8.568c0.58-0.593,1.352-1.384,2.082-2.085
			c0.73,0.702,1.503,1.492,2.082,2.085c3.926,4.017,8.376,8.568,14.629,8.568c6.253,0,10.704-4.552,14.63-8.568
			c0.58-0.593,1.352-1.383,2.082-2.085c0.73,0.702,1.502,1.492,2.081,2.085c3.926,4.016,8.377,8.568,14.63,8.568
			c6.253,0,10.703-4.552,14.629-8.568c0.58-0.593,1.352-1.384,2.082-2.085c0.73,0.702,1.503,1.492,2.082,2.085
			c3.926,4.017,8.376,8.568,14.629,8.568s10.704-4.552,14.63-8.568c0.58-0.593,1.352-1.383,2.082-2.085
			c0.73,0.702,1.502,1.492,2.081,2.085c3.926,4.016,8.377,8.568,14.63,8.568c6.254,0,10.704-4.552,14.63-8.568
			c0.58-0.593,1.352-1.384,2.082-2.085c0.73,0.703,1.503,1.492,2.082,2.085c3.926,4.017,8.376,8.568,14.629,8.568
			s10.704-4.552,14.63-8.568c0.58-0.593,1.352-1.383,2.082-2.085c0.73,0.702,1.502,1.492,2.081,2.085
			c3.926,4.016,8.377,8.568,14.63,8.568c5.849,0,13.583-4.877,22.986-14.495c1.603-1.639,2.5-3.841,2.5-6.133v-33.927
			C465.324,400.191,426.757,349.637,371.537,334.509z M385.272,138.043h11.698v36.655h-11.698V138.043z M126.737,174.698h-11.698
			v-36.655h11.698V174.698z M310.211,217.057c-16.356-4.188-33.267-8.518-50.852-8.628c-18.72-0.103-36.838,4.278-54.348,8.529
			c-8.056,1.956-16.374,3.975-24.499,5.474l-29.257-1.321c-0.132-0.006-0.264-0.009-0.395-0.009c-3.625,0-6.573-2.949-6.573-6.573
			v-31.057v-45.428h193.023c4.845,0,8.774-3.927,8.774-8.774c0-4.847-3.928-8.774-8.774-8.774H144.629
			c4.49-57.518,52.727-102.946,111.376-102.946c61.603,0,111.72,50.117,111.72,111.72v54.202v31.057
			c0,3.625-2.949,6.573-6.573,6.573c-0.138,0-0.276,0.004-0.414,0.011l-27.722,1.309c-0.332-0.088-0.67-0.163-1.019-0.212
			c-0.075-0.01-0.147-0.012-0.222-0.02C324.607,220.73,317.302,218.871,310.211,217.057z M215.079,312.058
			c12.302,9.225,26.312,14.305,40.926,14.305c14.586,0,28.8-5.118,41.33-14.63l-0.16,11.607
			c-3.817,3.065-11.794,8.673-22.886,12.375c-6.479,2.092-14.116,3.566-22.824,3.624c-19.472-0.253-31.987-10.711-36.535-15.289
			L215.079,312.058z M447.787,487.674h-0.01c-2.688,2.503-5.526,4.807-7.443,6.048c-0.859-0.797-1.865-1.825-2.578-2.555
			c-3.926-4.017-8.376-8.568-14.629-8.568s-10.704,4.552-14.63,8.568c-0.58,0.593-1.352,1.383-2.082,2.085
			c-0.73-0.702-1.502-1.492-2.081-2.085c-3.926-4.017-8.377-8.568-14.63-8.568c-6.253,0-10.704,4.552-14.63,8.568
			c-0.58,0.593-1.352,1.384-2.082,2.085c-0.73-0.703-1.503-1.492-2.082-2.085c-3.926-4.017-8.376-8.568-14.629-8.568
			s-10.704,4.552-14.63,8.568c-0.58,0.593-1.352,1.383-2.082,2.085c-0.73-0.702-1.502-1.492-2.081-2.085
			c-3.926-4.017-8.377-8.568-14.63-8.568c-6.253,0-10.704,4.552-14.63,8.568c-0.58,0.593-1.352,1.384-2.081,2.085
			c-0.73-0.703-1.503-1.492-2.082-2.085c-3.926-4.017-8.376-8.568-14.629-8.568c-6.253,0-10.704,4.552-14.63,8.568
			c-0.58,0.593-1.352,1.383-2.082,2.085c-0.73-0.702-1.502-1.492-2.081-2.085c-3.926-4.017-8.377-8.568-14.63-8.568
			c-6.253,0-10.704,4.552-14.63,8.568c-0.58,0.593-1.352,1.384-2.081,2.085c-0.73-0.703-1.503-1.492-2.082-2.085
			c-3.926-4.017-8.376-8.568-14.63-8.568s-10.703,4.552-14.629,8.568c-0.58,0.593-1.352,1.383-2.082,2.085
			c-0.73-0.702-1.502-1.492-2.081-2.085c-3.926-4.017-8.377-8.568-14.63-8.568s-10.704,4.552-14.63,8.568
			c-0.58,0.593-1.352,1.384-2.081,2.085c-0.73-0.703-1.503-1.492-2.082-2.085c-3.926-4.017-8.376-8.568-14.63-8.568
			c-6.254,0-10.703,4.552-14.629,8.568c-0.58,0.593-1.352,1.383-2.082,2.085c-0.73-0.702-1.502-1.492-2.082-2.085
			c-3.926-4.017-8.376-8.568-14.63-8.568c-6.254,0-10.704,4.552-14.63,8.568c-0.58,0.593-1.352,1.384-2.081,2.085
			c-0.73-0.703-1.503-1.492-2.082-2.085c-3.926-4.017-8.376-8.568-14.63-8.568c-6.254,0-10.703,4.552-14.629,8.568
			c-0.714,0.729-1.719,1.757-2.577,2.554c-1.913-1.242-4.751-3.546-7.444-6.05V459.43c0-50.455,34.173-94.291,83.104-106.599
			c0.07-0.019,0.14-0.036,0.211-0.056l55.762-15.506c7.161,7.016,23.401,19.631,47.632,19.631c0.193,0,0.38-0.009,0.573-0.011
			c0.221,0.002,0.439,0.011,0.662,0.011c14.623,0,27.05-3.653,36.739-8.068c0.146-0.065,0.292-0.131,0.438-0.198
			c0.117-0.054,0.232-0.109,0.349-0.163c8.585-3.952,14.855-8.438,18.564-11.471l58.74,14.462
			c47.562,13.081,80.769,56.647,80.769,105.985V487.674z"/>
	</g>
</g>
</svg>